<svg width="127" height="79" viewBox="0 0 127 79" fill="none" xmlns="http://www.w3.org/2000/svg">
<path d="M0.92 36.96L6.8 5.68H14.04L20.08 25.28L26.04 5.68H33.24L39.16 36.96H31.8L28.44 20.28L23.52 36H23C21.04 36.04 19.04 36.08 17.08 36.04H16.56L11.64 20.2L8.28 36.96H0.92ZM56.6753 28.92C55.7553 26.72 54.9153 24.76 52.3953 24.76C49.3953 24.76 47.1153 26.4 47.1153 29.28C47.1153 31.2 48.1553 32.52 50.2353 32.52C52.7153 32.52 55.1553 30.8 56.6753 28.92ZM64.4353 36.88L58.9953 37.92L58.3953 35.04C56.0753 36.96 52.9153 38.12 49.9153 38.12H49.5953C48.9553 38.12 47.8353 37.84 47.2753 37.64C43.4753 36.4 41.5153 32.92 41.5153 29.36C41.5153 23.48 46.2353 19.24 52.3953 19.24C55.1153 19.24 57.1153 20.04 58.8753 21.8C58.7953 19.04 57.7153 16.76 54.5553 16.76C52.5553 16.76 50.8353 17.56 49.3153 18.8C49.1953 18.88 48.9953 19.08 48.7953 19.28C48.6753 19.32 48.5553 19.44 48.4353 19.52C48.3553 19.6 48.2353 19.68 48.1553 19.72L47.8753 19.88L43.9553 16.28L44.1553 16C46.4753 13.16 50.7553 11.2 54.5153 11.2C61.4353 11.2 64.4353 16.44 64.4353 22.2C64.4353 24.88 63.9153 27.16 62.7953 29.6C63.2353 31.24 63.6753 32.88 64.0353 34.56C64.1953 35.2 64.3153 35.88 64.3953 36.52L64.4353 36.88ZM68.2213 36.96V12.64H75.5813V14.32C77.1413 12.92 79.5013 12.24 81.5013 12.24C82.1413 12.24 82.7413 12.32 83.3813 12.4L83.9013 12.44V20.52L82.8213 19.68C82.2213 19.2 81.3813 18.96 80.5813 18.96C77.0613 18.96 75.5813 21.72 75.5813 24.8V36.96H68.2213ZM92.4178 22.32V23.08C93.5378 21.16 94.5378 18.76 94.5378 16.84C94.5378 16.64 94.5378 16.4 94.4578 16.24C94.4178 16.12 94.3778 16.08 94.3778 16.04H94.2978C94.1378 16.04 93.9378 16.16 93.7378 16.4C92.6978 17.72 92.4178 20.6 92.4178 22.32ZM87.1778 35.12L86.8978 35.2L84.8178 30.16L85.2178 30.04C85.4178 29.96 86.0178 29.68 86.6178 29.32C86.8978 29.2 87.1378 29 87.3378 28.88C87.4178 28.8 87.4978 28.76 87.5378 28.72C87.4978 28.56 87.4578 28.28 87.3778 27.92C87.2978 27.52 87.2178 27.12 87.2178 26.96C86.9778 25.36 86.8978 23.76 86.8978 22.2C86.8978 18.64 87.6978 13.8 91.2178 11.52C92.2178 10.88 93.3778 10.48 94.6178 10.48C98.0578 10.48 100.098 13.72 100.098 16.52C100.098 20.68 98.2978 24.68 95.8178 28C95.2578 28.88 94.4978 29.6 93.8578 30.44C93.8978 30.44 93.8978 30.48 93.8978 30.52C93.9778 30.64 94.0578 30.76 94.0578 30.8C94.6178 31.8 95.1778 32.68 96.2178 33.2C96.2978 33.2 96.3378 33.24 96.4178 33.28C96.7378 33.4 96.7378 33.68 96.7378 33.76L95.0578 38.6L94.6978 38.48C92.6578 37.8 90.9378 36.24 89.7778 34.48C89.7378 34.44 89.6578 34.24 89.5378 34.04C89.4978 34 89.4578 33.92 89.4178 33.88C89.4178 34.16 87.4978 35.08 87.1778 35.12ZM97.1778 8.6C94.7378 8.6 93.0578 6.44 93.0578 4.36C93.0578 2.16 94.8578 0.159997 97.2978 0.159997C99.7778 0.159997 101.578 2.12 101.578 4.36C101.578 6.68 99.7378 8.6 97.1778 8.6ZM109.592 21H119.032C118.072 19.32 116.912 18.52 114.672 18.52C112.152 18.52 110.632 19.24 109.592 21ZM120.872 29.64L121.472 29.28L124.632 34.52L124.152 34.8C121.432 36.48 118.272 37.36 114.992 37.36C106.552 37.36 101.632 32.04 101.632 24.76C101.632 18 106.472 12 114.672 12C123.672 12 126.832 18.6 126.832 25.32C126.832 25.72 126.832 26.12 126.792 26.52L126.752 27.04H109.032C109.032 27.16 109.072 27.24 109.112 27.32C110.112 29.8 111.992 31.08 114.992 31.08C117.112 31.08 119.112 30.64 120.872 29.64ZM16.36 66.4V60H33.68V60.6C33.28 66.88 30.88 73.56 23.64 76.28C21.8 77 19.72 77.36 17.68 77.36C7.2 77.36 1.44 70.24 1.44 61.48C1.44 52.76 7.2 45.6 17.68 45.6C22.08 45.6 26.2 46.88 29.24 49.8L29.44 50V50.44L25.2 55.6L24.64 55.08C22.72 53.32 20.04 52.2 17.36 52.2C11.84 52.2 8.92 56.76 8.92 61.48C8.92 66.2 11.84 70.76 17.36 70.76C20.72 70.76 23.4 69.04 24.96 66.4H16.36ZM41.1731 68.88C41.2531 71.24 42.4531 73 44.9731 73C46.0531 73 47.3331 72.44 48.2931 71.72C46.4931 71.32 44.7331 70.76 43.0931 69.96C42.4131 69.68 41.7331 69.32 41.1731 68.88ZM48.2931 56.88H48.6531L48.6931 57.2C48.7731 58.32 48.9731 61.8 48.9731 61.8C48.9731 61.8 45.8131 62.04 43.5331 64C43.5331 64.04 43.4131 64.12 43.3331 64.2C45.3731 65.64 47.7331 66.44 50.1731 66.96C50.4931 67.04 50.7731 67.12 51.0931 67.16C51.2931 67.2 51.5331 67.24 51.7331 67.24C51.7731 67.2 51.7731 67.12 51.8131 67.08C52.9331 64.92 53.6531 62.12 53.6531 59.72C53.6531 56.84 52.6131 53.96 49.3331 53.96C46.3731 53.96 44.0931 55.72 42.6531 58.12C42.5731 58.28 42.4931 58.48 42.3731 58.72C42.6531 58.52 42.9331 58.36 43.1731 58.28C44.7331 57.52 46.4531 57 48.2931 56.88ZM57.1731 67.64L58.8131 67.68V72.72H58.4531C57.0931 72.64 55.7731 72.6 54.4131 72.56C52.2131 75.52 49.0931 78.08 44.9331 78.08C39.2531 78.08 36.0131 73.68 36.0131 68.72C36.0131 67.16 36.3731 65.6 37.0531 64.16C37.0131 64 36.9331 63.84 36.8931 63.72C36.8531 63.48 36.7731 63.2 36.7331 62.92C36.6931 62.36 36.6531 61.76 36.6531 61.44C36.6531 55.08 42.2931 48.84 49.3331 48.84C50.5331 48.84 51.8531 49.16 52.9731 49.6C57.4531 51.44 58.7331 55.72 58.7331 59.84C58.7331 61.92 58.4131 63.96 57.8131 65.96C57.6931 66.28 57.5331 66.68 57.3731 67.08C57.2931 67.24 57.2531 67.44 57.1731 67.64ZM62.1656 76.96V52.64H69.5256V54.32C71.0856 52.92 73.4456 52.24 75.4456 52.24C82.4856 52.24 86.4856 57.68 86.4856 64.52V76.96H78.9656V64.8C78.9656 62.04 77.5656 58.96 74.5256 58.96C71.0856 58.96 69.5256 61.76 69.5256 64.8V76.96H62.1656ZM103.423 70.88C106.983 70.88 109.303 67.96 109.303 64.72C109.303 61.52 107.023 58.56 103.423 58.56C99.8234 58.56 97.8634 61.52 97.8634 64.72C97.8634 67.92 99.8634 70.88 103.423 70.88ZM116.583 76.92H109.263V75.2C107.543 76.64 105.263 77.36 102.823 77.36C94.7434 77.36 90.5034 71.24 90.5034 64.72C90.5034 58.28 94.7434 52.08 102.823 52.08C105.303 52.08 107.543 52.84 109.263 54.32V43.92H116.583V76.92Z" fill="#0000D3"/>
</svg>
