<svg width="278" height="278" viewBox="0 0 278 278" fill="none" xmlns="http://www.w3.org/2000/svg">
<circle cx="139" cy="139" r="139" fill="url(#paint0_linear_252_36)"/>
<path d="M215.953 95.264L219.537 93.088C220.049 90.4427 219.025 89.12 216.465 89.12C212.796 89.12 210.961 91.936 210.961 97.568C210.961 99.7867 211.26 102.347 211.857 105.248C218.342 109.6 221.585 115.189 221.585 122.016C221.585 128.757 219.238 134.005 214.545 137.76C209.852 141.515 203.494 143.392 195.473 143.392C192.145 143.392 188.689 143.051 185.105 142.368C181.35 144.757 179.473 146.549 179.473 147.744C179.473 148.939 182.204 149.536 187.665 149.536H200.721C220.092 149.536 229.777 156.491 229.777 170.4C229.777 177.909 226.833 183.84 220.945 188.192C215.142 192.629 206.054 194.848 193.681 194.848C172.604 194.848 162.065 190.283 162.065 181.152C162.065 176.203 165.35 172.789 171.921 170.912L179.601 174.368C178.918 176.843 178.577 179.189 178.577 181.408C178.577 188.747 184.038 192.416 194.961 192.416C201.617 192.416 206.737 191.179 210.321 188.704C213.905 186.229 215.697 183.157 215.697 179.488C215.697 175.819 214.588 173.344 212.369 172.064C210.236 170.869 205.926 170.272 199.441 170.272H187.025C180.113 170.272 175.164 169.12 172.177 166.816C169.19 164.512 167.697 161.696 167.697 158.368C167.697 154.955 168.764 152.139 170.897 149.92C173.03 147.616 176.828 144.8 182.289 141.472C172.39 138.656 167.441 132.171 167.441 122.016C167.441 115.616 169.745 110.453 174.353 106.528C178.961 102.603 185.873 100.64 195.089 100.64C200.636 100.64 205.372 101.707 209.297 103.84C208.785 101.536 208.529 99.4453 208.529 97.568C208.529 92.7893 209.809 89.3333 212.369 87.2C214.929 85.0667 217.788 84 220.945 84C224.102 84 226.62 84.8533 228.497 86.56C230.46 88.1813 231.441 90.4427 231.441 93.344C231.441 96.2453 230.673 98.4213 229.137 99.872C227.601 101.237 225.724 101.92 223.505 101.92C221.372 101.92 219.58 101.365 218.129 100.256C216.764 99.0613 216.038 97.3973 215.953 95.264ZM188.817 119.2V126.112C188.817 131.829 189.286 135.712 190.225 137.76C191.249 139.808 192.742 140.832 194.705 140.832C196.753 140.832 198.204 139.851 199.057 137.888C199.996 135.84 200.465 131.701 200.465 125.472V119.2C200.465 112.544 200.038 108.192 199.185 106.144C198.332 104.011 196.881 102.944 194.833 102.944C192.87 102.944 191.377 104.053 190.353 106.272C189.329 108.405 188.817 112.715 188.817 119.2Z" fill="#1E0F75"/>
<path d="M51 101.92H81.848V113.696C84.664 104.992 90.8507 100.64 100.408 100.64C110.051 100.64 115.896 105.248 117.944 114.464C120.931 105.248 127.203 100.64 136.76 100.64C149.304 100.64 155.576 107.765 155.576 122.016V160.544H162.744V162.848H127.288V160.544H131.768V118.944C131.768 112.459 131.213 108.661 130.104 107.552C129.592 107.04 128.909 106.784 128.056 106.784C125.581 106.784 123.405 108.448 121.528 111.776C119.651 115.104 118.712 119.328 118.712 124.448V160.544H123.32V162.848H90.424V160.544H94.904V118.944C94.904 112.459 94.3493 108.661 93.24 107.552C92.728 107.04 92.0453 106.784 91.192 106.784C88.8027 106.784 86.6267 108.619 84.664 112.288C82.7867 115.872 81.848 120.181 81.848 125.216V160.544H86.456V162.848H51V160.544H58.04V104.224H51V101.92Z" fill="#1E0F75"/>
<defs>
<linearGradient id="paint0_linear_252_36" x1="139" y1="0" x2="139" y2="278" gradientUnits="userSpaceOnUse">
<stop offset="0.085" stop-color="#E893C5"/>
<stop offset="0.505" stop-color="#CBD8E8"/>
<stop offset="0.9" stop-color="#EBB2C3"/>
</linearGradient>
</defs>
</svg>
