<svg width="371" height="292" viewBox="0 0 371 292" fill="none" xmlns="http://www.w3.org/2000/svg">
<rect width="371" height="292" rx="21.234" fill="#FFFDF9"/>
<path d="M36.9987 49.4362C38.1379 49.4362 39.3178 49.7617 40.5384 50.4127C41.8404 50.9823 42.8169 51.7553 43.4679 52.7318L73.1284 98.3821L67.0254 98.138L97.4182 52.7318C98.9643 50.5347 100.958 49.4362 103.399 49.4362C105.352 49.4362 107.102 50.1278 108.648 51.5112C110.194 52.8945 110.967 54.6847 110.967 56.8818V127.554C110.967 129.67 110.275 131.46 108.892 132.925C107.509 134.308 105.678 135 103.399 135C101.121 135 99.2491 134.308 97.7844 132.925C96.4011 131.46 95.7094 129.67 95.7094 127.554V70.0643L100.47 71.1628L75.5696 109.123C74.8372 110.018 73.9014 110.791 72.7622 111.442C71.7043 112.093 70.6058 112.378 69.4666 112.297C68.4087 112.378 67.3102 112.093 66.171 111.442C65.1131 110.791 64.218 110.018 63.4857 109.123L40.1723 72.2613L43.3458 65.7922V127.554C43.3458 129.67 42.6948 131.46 41.3929 132.925C40.0909 134.308 38.3821 135 36.2664 135C34.232 135 32.5639 134.308 31.2619 132.925C29.9599 131.46 29.309 129.67 29.309 127.554V56.8818C29.309 54.8475 30.0413 53.098 31.506 51.6332C33.0521 50.1685 34.883 49.4362 36.9987 49.4362Z" fill="#FF5500"/>
<path d="M176.8 217.329C176.8 223.488 175.41 228.934 172.631 233.666C169.927 238.323 166.246 241.966 161.589 244.595C157.007 247.224 151.862 248.539 146.153 248.539C140.445 248.539 135.262 247.224 130.605 244.595C126.023 241.966 122.342 238.323 119.563 233.666C116.859 228.934 115.507 223.488 115.507 217.329C115.507 211.17 116.859 205.761 119.563 201.104C122.342 196.372 126.023 192.692 130.605 190.063C135.262 187.359 140.445 186.006 146.153 186.006C151.862 186.006 157.007 187.359 161.589 190.063C166.246 192.692 169.927 196.372 172.631 201.104C175.41 205.761 176.8 211.17 176.8 217.329ZM163.279 217.329C163.279 213.498 162.49 210.193 160.913 207.414C159.411 204.56 157.345 202.344 154.716 200.766C152.162 199.189 149.308 198.4 146.153 198.4C142.998 198.4 140.107 199.189 137.478 200.766C134.924 202.344 132.858 204.56 131.281 207.414C129.778 210.193 129.027 213.498 129.027 217.329C129.027 221.085 129.778 224.39 131.281 227.244C132.858 230.023 134.924 232.201 137.478 233.779C140.107 235.356 142.998 236.145 146.153 236.145C149.308 236.145 152.162 235.356 154.716 233.779C157.345 232.201 159.411 230.023 160.913 227.244C162.49 224.39 163.279 221.085 163.279 217.329Z" fill="#FF5500"/>
<path d="M270.727 129.554C270.727 131.67 270.035 133.46 268.652 134.925C267.268 136.308 265.519 137 263.403 137C261.287 137 259.538 136.308 258.154 134.925C256.771 133.46 256.079 131.67 256.079 129.554V79.1437C256.079 77.028 256.771 75.2785 258.154 73.8952C259.538 72.4304 261.287 71.6981 263.403 71.6981C265.519 71.6981 267.268 72.4304 268.652 73.8952C270.035 75.2785 270.727 77.028 270.727 79.1437V129.554ZM263.281 63.7642C260.514 63.7642 258.561 63.3166 257.422 62.4215C256.283 61.5264 255.713 59.9397 255.713 57.6612V55.3421C255.713 52.9823 256.324 51.3955 257.544 50.5818C258.846 49.6867 260.799 49.2391 263.403 49.2391C266.251 49.2391 268.245 49.6867 269.384 50.5818C270.523 51.4769 271.093 53.0636 271.093 55.3421V57.6612C271.093 60.021 270.483 61.6485 269.262 62.5436C268.041 63.3573 266.048 63.7642 263.281 63.7642Z" fill="#FF5500"/>
<path d="M181.396 68.4775C183.512 68.4775 185.261 69.1692 186.645 70.5525C188.028 71.9358 188.72 73.726 188.72 75.9231V127.554C188.72 129.67 188.028 131.46 186.645 132.925C185.261 134.308 183.512 135 181.396 135C179.28 135 177.531 134.308 176.147 132.925C174.764 131.46 174.072 129.67 174.072 127.554V121.573L176.758 122.672C176.758 123.73 176.188 125.032 175.049 126.578C173.91 128.043 172.364 129.507 170.411 130.972C168.458 132.437 166.139 133.698 163.453 134.756C160.849 135.732 158.001 136.221 154.909 136.221C149.294 136.221 144.209 134.797 139.652 131.949C135.095 129.019 131.474 125.032 128.788 119.987C126.184 114.86 124.882 109.001 124.882 102.41C124.882 95.7375 126.184 89.8786 128.788 84.8335C131.474 79.707 135.054 75.7197 139.53 72.8716C144.005 69.9422 148.969 68.4775 154.421 68.4775C157.92 68.4775 161.134 69.0064 164.064 70.0643C166.993 71.1221 169.516 72.4648 171.631 74.0922C173.828 75.7197 175.496 77.3878 176.636 79.0967C177.856 80.7241 178.467 82.1075 178.467 83.2467L174.072 84.8335V75.9231C174.072 73.8074 174.764 72.0579 176.147 70.6746C177.531 69.2098 179.28 68.4775 181.396 68.4775ZM156.74 122.794C160.32 122.794 163.453 121.899 166.139 120.109C168.824 118.319 170.899 115.877 172.364 112.785C173.91 109.693 174.683 106.235 174.683 102.41C174.683 98.5042 173.91 95.0051 172.364 91.9129C170.899 88.8208 168.824 86.3796 166.139 84.5894C163.453 82.7991 160.32 81.904 156.74 81.904C153.241 81.904 150.149 82.7991 147.463 84.5894C144.778 86.3796 142.662 88.8208 141.116 91.9129C139.652 95.0051 138.919 98.5042 138.919 102.41C138.919 106.235 139.652 109.693 141.116 112.785C142.662 115.877 144.778 118.319 147.463 120.109C150.149 121.899 153.241 122.794 156.74 122.794Z" fill="#FF5500"/>
<path d="M210.105 136C207.872 136 206.025 135.27 204.565 133.81C203.105 132.264 202.375 130.374 202.375 128.141V74.9295C202.375 72.6962 203.105 70.8495 204.565 69.3893C206.025 67.8432 207.872 67.0702 210.105 67.0702C212.338 67.0702 214.185 67.8432 215.645 69.3893C217.105 70.8495 217.836 72.6962 217.836 74.9295V87.0405L216.934 78.4082C217.878 76.3467 219.081 74.543 220.541 72.9969C222.087 71.3649 223.805 70.0335 225.695 69.0028C227.584 67.8862 229.603 67.0702 231.75 66.5548C233.898 66.0395 236.045 65.7818 238.192 65.7818C240.769 65.7818 242.917 66.5119 244.634 67.9721C246.438 69.4323 247.34 71.1502 247.34 73.1257C247.34 75.9602 246.61 78.0217 245.15 79.3101C243.69 80.5126 242.101 81.1138 240.383 81.1138C238.751 81.1138 237.248 80.8132 235.873 80.212C234.585 79.6107 233.082 79.3101 231.364 79.3101C229.818 79.3101 228.229 79.6966 226.597 80.4696C225.051 81.1568 223.59 82.2734 222.216 83.8195C220.928 85.3656 219.854 87.2982 218.995 89.6173C218.222 91.8506 217.836 94.5133 217.836 97.6055V128.141C217.836 130.374 217.105 132.264 215.645 133.81C214.185 135.27 212.338 136 210.105 136Z" fill="#FF5500"/>
<path d="M314.693 136.221C307.776 136.221 301.755 134.797 296.628 131.949C291.583 129.019 287.677 125.072 284.91 120.109C282.225 115.145 280.882 109.53 280.882 103.264C280.882 95.9409 282.347 89.7159 285.277 84.5894C288.287 79.3815 292.193 75.3942 296.994 72.6275C301.795 69.8608 306.881 68.4775 312.252 68.4775C316.402 68.4775 320.308 69.3319 323.969 71.0407C327.713 72.7496 331.008 75.1094 333.856 78.1202C336.704 81.0496 338.942 84.4673 340.57 88.3732C342.278 92.2791 343.133 96.4291 343.133 100.823C343.051 102.776 342.278 104.363 340.814 105.584C339.349 106.804 337.64 107.415 335.687 107.415H289.06L285.399 95.2085H330.194L327.509 97.6497V94.3541C327.346 91.9943 326.492 89.8786 324.946 88.007C323.481 86.1354 321.61 84.6707 319.331 83.6129C317.134 82.4737 314.774 81.904 312.252 81.904C309.811 81.904 307.532 82.2295 305.416 82.8805C303.301 83.5315 301.47 84.63 299.924 86.1761C298.378 87.7222 297.157 89.7972 296.262 92.4012C295.367 95.0051 294.919 98.3007 294.919 102.288C294.919 106.682 295.814 110.425 297.605 113.517C299.476 116.528 301.836 118.847 304.684 120.475C307.613 122.021 310.706 122.794 313.961 122.794C316.971 122.794 319.372 122.55 321.162 122.062C322.952 121.573 324.376 121.004 325.434 120.353C326.573 119.62 327.591 119.01 328.486 118.522C329.95 117.79 331.334 117.423 332.636 117.423C334.426 117.423 335.891 118.034 337.03 119.254C338.25 120.475 338.861 121.899 338.861 123.526C338.861 125.723 337.722 127.717 335.443 129.507C333.327 131.298 330.357 132.884 326.533 134.268C322.708 135.57 318.762 136.221 314.693 136.221Z" fill="#FF5500"/>
<path d="M69.1579 254.436C61.8821 254.436 55.0851 253.096 48.7667 250.415C42.4483 247.735 36.8958 244.049 32.1091 239.358C27.3225 234.571 23.541 229.067 20.7648 222.844C18.0842 216.621 16.744 209.92 16.744 202.74C16.744 195.56 18.0842 188.859 20.7648 182.636C23.541 176.414 27.3225 170.957 32.1091 166.266C36.8958 161.479 42.4483 157.746 48.7667 155.065C55.0851 152.385 61.8821 151.044 69.1579 151.044C73.6573 151.044 78.0132 151.523 82.2254 152.48C86.4377 153.438 90.3149 154.874 93.857 156.788C95.293 157.554 96.346 158.607 97.0162 159.947C97.782 161.192 98.165 162.484 98.165 163.825C98.165 166.122 97.3991 168.18 95.8674 169.999C94.3357 171.818 92.3731 172.728 89.9798 172.728C89.2139 172.728 88.4002 172.632 87.5386 172.441C86.7727 172.249 86.0069 171.962 85.241 171.579C82.8477 170.526 80.3108 169.712 77.6302 169.138C74.9497 168.563 72.1256 168.276 69.1579 168.276C62.9352 168.276 57.2391 169.856 52.0695 173.015C46.9956 176.078 42.927 180.243 39.8635 185.508C36.8958 190.678 35.4119 196.422 35.4119 202.74C35.4119 208.963 36.8958 214.707 39.8635 219.972C42.927 225.237 46.9956 229.45 52.0695 232.609C57.2391 235.672 62.9352 237.204 69.1579 237.204C72.0298 237.204 75.189 236.917 78.6354 236.342C82.0818 235.768 84.9059 235.002 87.1078 234.045L85.8154 238.353V213.797L88.2566 215.951H72.317C69.828 215.951 67.7219 215.138 65.9987 213.51C64.3712 211.883 63.5575 209.824 63.5575 207.335C63.5575 204.846 64.3712 202.788 65.9987 201.161C67.7219 199.533 69.828 198.719 72.317 198.719H95.8674C98.3564 198.719 100.415 199.581 102.042 201.304C103.67 202.932 104.483 204.99 104.483 207.479V237.922C104.483 239.837 104.005 241.416 103.047 242.661C102.186 243.905 101.181 244.911 100.032 245.676C95.628 248.357 90.7935 250.511 85.5282 252.138C80.3586 253.67 74.9018 254.436 69.1579 254.436Z" fill="#FF5500"/>
<path d="M227.843 183.684C233.865 183.684 238.421 184.945 241.514 187.468C244.687 189.99 246.844 193.367 247.983 197.598C249.203 201.748 249.814 206.387 249.814 211.513V242.761C249.814 244.876 249.122 246.666 247.739 248.131C246.355 249.515 244.606 250.206 242.49 250.206C240.374 250.206 238.625 249.515 237.242 248.131C235.858 246.666 235.167 244.876 235.167 242.761V211.513C235.167 208.828 234.8 206.427 234.068 204.312C233.417 202.115 232.196 200.365 230.406 199.063C228.616 197.761 226.053 197.11 222.716 197.11C219.462 197.11 216.695 197.761 214.416 199.063C212.219 200.365 210.51 202.115 209.29 204.312C208.151 206.427 207.581 208.828 207.581 211.513V242.761C207.581 244.876 206.889 246.666 205.506 248.131C204.123 249.515 202.373 250.206 200.257 250.206C198.142 250.206 196.392 249.515 195.009 248.131C193.626 246.666 192.934 244.876 192.934 242.761V192.35C192.934 190.234 193.626 188.485 195.009 187.101C196.392 185.637 198.142 184.904 200.257 184.904C202.373 184.904 204.123 185.637 205.506 187.101C206.889 188.485 207.581 190.234 207.581 192.35V197.598L205.75 197.232C206.483 195.849 207.54 194.384 208.924 192.838C210.307 191.211 211.935 189.705 213.806 188.322C215.678 186.939 217.793 185.84 220.153 185.026C222.513 184.131 225.076 183.684 227.843 183.684Z" fill="#FF5500"/>
<path d="M323.781 154.379C326.048 154.379 327.923 155.12 329.405 156.602C330.887 158.084 331.628 160.002 331.628 162.356V243.177C331.628 245.444 330.887 247.362 329.405 248.931C327.923 250.413 326.048 251.155 323.781 251.155C321.515 251.155 319.64 250.413 318.158 248.931C316.676 247.362 315.935 245.444 315.935 243.177V236.769L318.812 237.946C318.812 239.079 318.202 240.474 316.981 242.131C315.76 243.7 314.104 245.27 312.011 246.839C309.919 248.408 307.434 249.76 304.557 250.893C301.767 251.939 298.716 252.462 295.403 252.462C289.387 252.462 283.938 250.937 279.055 247.885C274.173 244.746 270.293 240.474 267.416 235.069C264.626 229.576 263.231 223.299 263.231 216.237C263.231 209.088 264.626 202.81 267.416 197.405C270.293 191.912 274.129 187.64 278.925 184.588C283.72 181.45 289.038 179.88 294.879 179.88C298.628 179.88 302.072 180.447 305.211 181.581C308.35 182.714 311.052 184.152 313.319 185.896C315.673 187.64 317.46 189.427 318.681 191.258C319.989 193.002 320.643 194.484 320.643 195.705L315.935 197.405V162.356C315.935 160.089 316.676 158.215 318.158 156.733C319.64 155.163 321.515 154.379 323.781 154.379ZM297.364 238.077C301.2 238.077 304.557 237.118 307.434 235.2C310.311 233.282 312.535 230.666 314.104 227.353C315.76 224.04 316.589 220.334 316.589 216.237C316.589 212.052 315.76 208.303 314.104 204.99C312.535 201.677 310.311 199.061 307.434 197.143C304.557 195.225 301.2 194.266 297.364 194.266C293.615 194.266 290.302 195.225 287.425 197.143C284.548 199.061 282.281 201.677 280.625 204.99C279.055 208.303 278.271 212.052 278.271 216.237C278.271 220.334 279.055 224.04 280.625 227.353C282.281 230.666 284.548 233.282 287.425 235.2C290.302 237.118 293.615 238.077 297.364 238.077Z" fill="#FF5500"/>
</svg>
