<svg width="500" height="357" viewBox="0 0 500 357" fill="none" xmlns="http://www.w3.org/2000/svg">
<rect width="500" height="357" rx="21.234" fill="#FFFDF9"/>
<mask id="path-2-outside-1_61_2423" maskUnits="userSpaceOnUse" x="58.1545" y="67.103" width="129" height="106" fill="black">
<rect fill="white" x="58.1545" y="67.103" width="129" height="106"/>
<path d="M63.9619 167.981L81.9046 72.5303H103.997L122.428 132.34L140.615 72.5303H162.586L180.651 167.981H158.192L147.939 117.082L132.926 165.052H131.339C125.358 165.174 119.255 165.296 113.274 165.174H111.687L96.6738 116.838L86.4208 167.981H63.9619Z"/>
</mask>
<path d="M63.9619 167.981L59.4634 167.135L58.444 172.558H63.9619V167.981ZM81.9046 72.5303V67.9531H78.1076L77.4062 71.6847L81.9046 72.5303ZM103.997 72.5303L108.372 71.1823L107.377 67.9531H103.997V72.5303ZM122.428 132.34L118.054 133.688L122.458 147.977L126.808 133.671L122.428 132.34ZM140.615 72.5303V67.9531H137.223L136.236 71.1987L140.615 72.5303ZM162.586 72.5303L167.083 71.6791L166.378 67.9531H162.586V72.5303ZM180.651 167.981V172.558H186.176L185.148 167.13L180.651 167.981ZM158.192 167.981L153.705 168.885L154.445 172.558H158.192V167.981ZM147.939 117.082L152.426 116.178L143.571 115.715L147.939 117.082ZM132.926 165.052V169.629H136.289L137.294 166.419L132.926 165.052ZM131.339 165.052V160.474H131.292L131.245 160.475L131.339 165.052ZM113.274 165.174L113.367 160.597L113.321 160.596H113.274V165.174ZM111.687 165.174L107.316 166.531L108.316 169.751H111.687V165.174ZM96.6738 116.838L101.045 115.48L92.1859 115.938L96.6738 116.838ZM86.4208 167.981V172.558H90.1715L90.9088 168.881L86.4208 167.981ZM63.9619 167.981L68.4603 168.827L86.4031 73.3759L81.9046 72.5303L77.4062 71.6847L59.4634 167.135L63.9619 167.981ZM81.9046 72.5303V77.1075H103.997V72.5303V67.9531H81.9046V72.5303ZM103.997 72.5303L99.6232 73.8783L118.054 133.688L122.428 132.34L126.803 130.992L108.372 71.1823L103.997 72.5303ZM122.428 132.34L126.808 133.671L144.995 73.862L140.615 72.5303L136.236 71.1987L118.049 131.008L122.428 132.34ZM140.615 72.5303V77.1075H162.586V72.5303V67.9531H140.615V72.5303ZM162.586 72.5303L158.089 73.3815L176.153 168.832L180.651 167.981L185.148 167.13L167.083 71.6791L162.586 72.5303ZM180.651 167.981V163.404H158.192V167.981V172.558H180.651V167.981ZM158.192 167.981L162.679 167.077L152.426 116.178L147.939 117.082L143.452 117.986L153.705 168.885L158.192 167.981ZM147.939 117.082L143.571 115.715L128.557 163.684L132.926 165.052L137.294 166.419L152.307 118.449L147.939 117.082ZM132.926 165.052V160.474H131.339V165.052V169.629H132.926V165.052ZM131.339 165.052L131.245 160.475C125.25 160.598 119.24 160.717 113.367 160.597L113.274 165.174L113.181 169.75C119.27 169.874 125.466 169.75 131.432 169.628L131.339 165.052ZM113.274 165.174V160.596H111.687V165.174V169.751H113.274V165.174ZM111.687 165.174L116.058 163.816L101.045 115.48L96.6738 116.838L92.3026 118.196L107.316 166.531L111.687 165.174ZM96.6738 116.838L92.1859 115.938L81.9329 167.081L86.4208 167.981L90.9088 168.881L101.162 117.738L96.6738 116.838ZM86.4208 167.981V163.404H63.9619V167.981V172.558H86.4208V167.981Z" fill="#0000D3" mask="url(#path-2-outside-1_61_2423)"/>
<mask id="path-4-outside-2_61_2423" maskUnits="userSpaceOnUse" x="180.163" y="220.472" width="73" height="92" fill="black">
<rect fill="white" x="180.163" y="220.472" width="73" height="92"/>
<path d="M199.091 281.6C199.317 288.248 202.697 293.205 209.795 293.205C212.837 293.205 216.442 291.628 219.147 289.6C214.076 288.473 209.119 286.896 204.499 284.642C202.584 283.854 200.669 282.84 199.091 281.6ZM219.147 247.799H220.161L220.273 248.701C220.499 251.855 221.062 261.658 221.062 261.658C221.062 261.658 212.161 262.334 205.739 267.855C205.739 267.967 205.401 268.193 205.175 268.418C210.922 272.474 217.569 274.727 224.442 276.192C225.343 276.417 226.132 276.643 227.034 276.755C227.597 276.868 228.273 276.981 228.836 276.981C228.949 276.868 228.949 276.643 229.062 276.53C232.216 270.446 234.244 262.559 234.244 255.799C234.244 247.687 231.315 239.574 222.076 239.574C213.738 239.574 207.316 244.532 203.26 251.292C203.035 251.743 202.809 252.306 202.471 252.982C203.26 252.419 204.049 251.968 204.725 251.743C209.119 249.602 213.964 248.137 219.147 247.799ZM244.159 278.108L248.779 278.22V292.417H247.765C243.934 292.191 240.216 292.079 236.385 291.966C230.188 300.304 221.4 307.515 209.682 307.515C193.683 307.515 184.557 295.121 184.557 281.15C184.557 276.755 185.571 272.361 187.486 268.305C187.374 267.855 187.148 267.404 187.035 267.066C186.923 266.39 186.697 265.601 186.585 264.812C186.472 263.235 186.359 261.545 186.359 260.644C186.359 242.729 202.246 225.152 222.076 225.152C225.456 225.152 229.174 226.054 232.329 227.293C244.948 232.476 248.554 244.532 248.554 256.137C248.554 261.996 247.652 267.742 245.962 273.375C245.624 274.277 245.173 275.403 244.723 276.53C244.497 276.981 244.385 277.544 244.159 278.108Z"/>
</mask>
<path d="M199.091 281.6L201.702 278.278L194.561 272.667L194.869 281.743L199.091 281.6ZM219.147 289.6L221.682 292.98L229.031 287.468L220.063 285.475L219.147 289.6ZM204.499 284.642L206.352 280.845L206.232 280.786L206.108 280.736L204.499 284.642ZM219.147 247.799V243.574H219.009L218.872 243.583L219.147 247.799ZM220.161 247.799L224.353 247.275L223.89 243.574H220.161V247.799ZM220.273 248.701L224.488 248.4L224.48 248.288L224.466 248.176L220.273 248.701ZM221.062 261.658L221.382 265.871L225.518 265.557L225.28 261.415L221.062 261.658ZM205.739 267.855L202.984 264.651L201.514 265.915V267.855H205.739ZM205.175 268.418L202.188 265.43L198.641 268.977L202.739 271.87L205.175 268.418ZM224.442 276.192L225.467 272.093L225.395 272.075L225.323 272.06L224.442 276.192ZM227.034 276.755L227.862 272.612L227.711 272.582L227.558 272.563L227.034 276.755ZM228.836 276.981V281.206H230.586L231.824 279.968L228.836 276.981ZM229.062 276.53L232.049 279.518L232.512 279.055L232.812 278.475L229.062 276.53ZM203.26 251.292L199.637 249.118L199.554 249.257L199.481 249.402L203.26 251.292ZM202.471 252.982L198.692 251.092L204.927 256.42L202.471 252.982ZM204.725 251.743L206.061 255.751L206.325 255.663L206.575 255.541L204.725 251.743ZM244.159 278.108L240.236 276.538L237.978 282.183L244.056 282.331L244.159 278.108ZM248.779 278.22H253.004V274.097L248.882 273.996L248.779 278.22ZM248.779 292.417V296.642H253.004V292.417H248.779ZM247.765 292.417L247.517 296.635L247.641 296.642H247.765V292.417ZM236.385 291.966L236.509 287.743L234.308 287.678L232.994 289.446L236.385 291.966ZM187.486 268.305L191.307 270.109L191.951 268.745L191.585 267.28L187.486 268.305ZM187.035 267.066L182.868 267.76L182.922 268.087L183.027 268.402L187.035 267.066ZM186.585 264.812L182.37 265.113L182.381 265.262L182.402 265.41L186.585 264.812ZM232.329 227.293L233.934 223.385L233.904 223.372L233.874 223.361L232.329 227.293ZM245.962 273.375L249.918 274.859L249.968 274.726L250.009 274.589L245.962 273.375ZM244.723 276.53L248.502 278.42L248.58 278.262L248.646 278.099L244.723 276.53ZM199.091 281.6L194.869 281.743C195.002 285.687 196.083 289.617 198.647 292.633C201.311 295.766 205.172 297.431 209.795 297.431V293.205V288.98C207.32 288.98 205.941 288.166 205.085 287.159C204.128 286.034 203.406 284.161 203.314 281.457L199.091 281.6ZM209.795 293.205V297.431C214.069 297.431 218.55 295.329 221.682 292.98L219.147 289.6L216.611 286.22C214.335 287.927 211.605 288.98 209.795 288.98V293.205ZM219.147 289.6L220.063 285.475C215.231 284.402 210.604 282.919 206.352 280.845L204.499 284.642L202.647 288.44C207.634 290.872 212.921 292.545 218.23 293.724L219.147 289.6ZM204.499 284.642L206.108 280.736C204.424 280.042 202.881 279.205 201.702 278.278L199.091 281.6L196.481 284.923C198.456 286.475 200.744 287.665 202.891 288.549L204.499 284.642ZM219.147 247.799V252.024H220.161V247.799V243.574H219.147V247.799ZM220.161 247.799L215.968 248.323L216.081 249.225L220.273 248.701L224.466 248.176L224.353 247.275L220.161 247.799ZM220.273 248.701L216.059 249.002C216.169 250.548 216.365 253.76 216.534 256.613C216.619 258.033 216.696 259.355 216.752 260.322C216.781 260.806 216.803 261.2 216.819 261.474C216.827 261.611 216.833 261.717 216.837 261.79C216.84 261.826 216.841 261.854 216.842 261.872C216.843 261.881 216.843 261.888 216.843 261.893C216.844 261.895 216.844 261.897 216.844 261.898C216.844 261.899 216.844 261.899 216.844 261.9C216.844 261.9 216.844 261.9 216.844 261.9C216.844 261.9 216.844 261.9 221.062 261.658C225.28 261.415 225.28 261.415 225.28 261.415C225.28 261.415 225.28 261.415 225.28 261.415C225.28 261.414 225.28 261.414 225.28 261.413C225.28 261.412 225.28 261.41 225.28 261.408C225.279 261.403 225.279 261.396 225.279 261.387C225.277 261.368 225.276 261.34 225.274 261.304C225.27 261.231 225.263 261.124 225.255 260.987C225.24 260.712 225.217 260.316 225.188 259.831C225.132 258.862 225.054 257.536 224.97 256.112C224.801 253.274 224.603 250.007 224.488 248.4L220.273 248.701ZM221.062 261.658C220.742 257.445 220.741 257.445 220.74 257.445C220.739 257.445 220.738 257.445 220.737 257.445C220.735 257.445 220.733 257.445 220.731 257.445C220.727 257.446 220.722 257.446 220.717 257.447C220.706 257.447 220.693 257.449 220.679 257.45C220.649 257.452 220.61 257.456 220.564 257.46C220.47 257.469 220.344 257.482 220.187 257.5C219.874 257.536 219.438 257.592 218.903 257.678C217.836 257.848 216.357 258.138 214.655 258.621C211.3 259.573 206.83 261.344 202.984 264.651L205.739 267.855L208.493 271.059C211.069 268.844 214.261 267.517 216.962 266.75C218.288 266.374 219.436 266.15 220.239 266.022C220.639 265.958 220.948 265.918 221.147 265.895C221.246 265.884 221.317 265.877 221.357 265.873C221.377 265.871 221.39 265.87 221.394 265.87C221.396 265.87 221.396 265.87 221.394 265.87C221.393 265.87 221.392 265.87 221.39 265.87C221.389 265.87 221.387 265.87 221.386 265.87C221.386 265.87 221.384 265.87 221.384 265.87C221.383 265.871 221.382 265.871 221.062 261.658ZM205.739 267.855H201.514C201.514 266.858 201.868 266.141 202.033 265.846C202.219 265.512 202.409 265.284 202.494 265.186C202.661 264.994 202.798 264.88 202.759 264.914C202.698 264.968 202.759 264.914 202.602 265.049C202.515 265.124 202.357 265.261 202.188 265.43L205.175 268.418L208.163 271.405C208.147 271.422 207.999 271.558 208.324 271.274C208.398 271.209 208.633 271.004 208.871 270.731C208.991 270.592 209.209 270.327 209.415 269.958C209.599 269.628 209.964 268.879 209.964 267.855H205.739ZM205.175 268.418L202.739 271.87C209.133 276.384 216.397 278.798 223.561 280.324L224.442 276.192L225.323 272.06C218.741 270.657 212.71 268.564 207.612 264.966L205.175 268.418ZM224.442 276.192L223.417 280.291C224.15 280.474 225.282 280.795 226.509 280.948L227.034 276.755L227.558 272.563C226.982 272.491 226.537 272.361 225.467 272.093L224.442 276.192ZM227.034 276.755L226.205 280.899C226.799 281.017 227.825 281.206 228.836 281.206V276.981V272.756C228.721 272.756 228.395 272.719 227.862 272.612L227.034 276.755ZM228.836 276.981L231.824 279.968C232.087 279.705 232.284 279.442 232.431 279.214C232.576 278.988 232.679 278.783 232.75 278.627C232.82 278.472 232.87 278.34 232.901 278.256C232.929 278.176 232.953 278.104 232.957 278.092C232.967 278.062 232.957 278.092 232.944 278.13C232.928 278.172 232.894 278.264 232.841 278.381C232.788 278.498 232.704 278.666 232.581 278.857C232.457 279.051 232.284 279.283 232.049 279.518L229.062 276.53L226.074 273.543C225.811 273.806 225.613 274.069 225.467 274.297C225.322 274.523 225.219 274.728 225.148 274.884C225.078 275.039 225.028 275.171 224.997 275.255C224.968 275.335 224.945 275.407 224.941 275.419C224.931 275.449 224.94 275.419 224.954 275.381C224.97 275.339 225.004 275.247 225.057 275.13C225.11 275.013 225.194 274.845 225.317 274.654C225.441 274.46 225.614 274.228 225.849 273.993L228.836 276.981ZM229.062 276.53L232.812 278.475C236.258 271.83 238.47 263.28 238.47 255.799H234.244H230.019C230.019 261.838 228.175 269.062 225.311 274.585L229.062 276.53ZM234.244 255.799H238.47C238.47 251.349 237.685 246.398 235.215 242.417C232.576 238.163 228.193 235.349 222.076 235.349V239.574V243.799C225.198 243.799 226.899 245.041 228.034 246.872C229.339 248.975 230.019 252.136 230.019 255.799H234.244ZM222.076 239.574V235.349C211.837 235.349 204.214 241.489 199.637 249.118L203.26 251.292L206.883 253.466C210.418 247.574 215.64 243.799 222.076 243.799V239.574ZM203.26 251.292L199.481 249.402C199.32 249.725 199.164 250.077 199.055 250.319C198.932 250.592 198.821 250.836 198.692 251.092L202.471 252.982L206.25 254.872C206.46 254.452 206.63 254.077 206.761 253.786C206.906 253.465 206.975 253.31 207.039 253.181L203.26 251.292ZM202.471 252.982L204.927 256.42C205.561 255.968 205.956 255.786 206.061 255.751L204.725 251.743L203.389 247.734C202.141 248.15 200.96 248.87 200.016 249.544L202.471 252.982ZM204.725 251.743L206.575 255.541C210.554 253.603 214.866 252.312 219.422 252.015L219.147 247.799L218.872 243.583C213.062 243.962 207.684 245.601 202.874 247.944L204.725 251.743ZM244.159 278.108L244.056 282.331L248.676 282.444L248.779 278.22L248.882 273.996L244.262 273.884L244.159 278.108ZM248.779 278.22H244.554V292.417H248.779H253.004V278.22H248.779ZM248.779 292.417V288.192H247.765V292.417V296.642H248.779V292.417ZM247.765 292.417L248.013 288.199C244.112 287.969 240.334 287.855 236.509 287.743L236.385 291.966L236.261 296.189C240.097 296.302 243.757 296.413 247.517 296.635L247.765 292.417ZM236.385 291.966L232.994 289.446C227.162 297.293 219.475 303.289 209.682 303.289V307.515V311.74C223.325 311.74 233.215 303.314 239.776 294.486L236.385 291.966ZM209.682 307.515V303.289C202.861 303.289 197.744 300.686 194.286 296.773C190.772 292.797 188.782 287.241 188.782 281.15H184.557H180.332C180.332 289.029 182.905 296.656 187.954 302.369C193.059 308.146 200.504 311.74 209.682 311.74V307.515ZM184.557 281.15H188.782C188.782 277.404 189.647 273.624 191.307 270.109L187.486 268.305L183.666 266.501C181.494 271.099 180.332 276.107 180.332 281.15H184.557ZM187.486 268.305L191.585 267.28C191.456 266.764 191.282 266.32 191.184 266.074C191.157 266.008 191.132 265.945 191.111 265.895C191.09 265.842 191.074 265.804 191.061 265.77C191.03 265.694 191.032 265.694 191.044 265.73L187.035 267.066L183.027 268.402C183.095 268.607 183.168 268.79 183.215 268.908C183.24 268.97 183.265 269.032 183.284 269.08C183.306 269.132 183.322 269.173 183.338 269.212C183.409 269.389 183.404 269.395 183.387 269.33L187.486 268.305ZM187.035 267.066L191.203 266.371C191.123 265.892 191.005 265.382 190.935 265.065C190.851 264.689 190.799 264.434 190.767 264.215L186.585 264.812L182.402 265.41C182.484 265.98 182.6 266.514 182.686 266.898C182.784 267.342 182.835 267.564 182.868 267.76L187.035 267.066ZM186.585 264.812L190.799 264.511C190.682 262.873 190.585 261.359 190.585 260.644H186.359H182.134C182.134 261.731 182.262 263.597 182.37 265.113L186.585 264.812ZM186.359 260.644H190.585C190.585 244.95 204.69 229.378 222.076 229.378V225.152V220.927C199.802 220.927 182.134 240.508 182.134 260.644H186.359ZM222.076 225.152V229.378C224.782 229.378 227.966 230.118 230.784 231.226L232.329 227.293L233.874 223.361C230.383 221.989 226.13 220.927 222.076 220.927V225.152ZM232.329 227.293L230.724 231.201C240.978 235.413 244.328 245.207 244.328 256.137H248.554H252.779C252.779 243.856 248.918 229.539 233.934 223.385L232.329 227.293ZM248.554 256.137H244.328C244.328 261.556 243.496 266.893 241.915 272.161L245.962 273.375L250.009 274.589C251.809 268.59 252.779 262.435 252.779 256.137H248.554ZM245.962 273.375L242.006 271.892C241.688 272.741 241.256 273.82 240.8 274.961L244.723 276.53L248.646 278.099C249.091 276.987 249.561 275.813 249.918 274.859L245.962 273.375ZM244.723 276.53L240.944 274.641C240.665 275.199 240.494 275.745 240.412 276.004C240.302 276.353 240.275 276.442 240.236 276.538L244.159 278.108L248.082 279.677C248.269 279.21 248.411 278.735 248.47 278.549C248.557 278.273 248.556 278.312 248.502 278.42L244.723 276.53Z" fill="#0000D3" mask="url(#path-4-outside-2_61_2423)"/>
<path d="M348.483 132.359V134.678C351.901 128.819 354.952 121.495 354.952 115.637C354.952 115.026 354.952 114.294 354.708 113.806C354.586 113.44 354.464 113.317 354.464 113.195H354.22C353.732 113.195 353.121 113.562 352.511 114.294C349.337 118.322 348.483 127.11 348.483 132.359ZM332.493 171.418L331.639 171.662L325.292 156.282L326.512 155.916C327.123 155.672 328.953 154.818 330.784 153.719C331.639 153.353 332.371 152.743 332.981 152.377C333.226 152.132 333.47 152.01 333.592 151.888C333.47 151.4 333.348 150.546 333.103 149.447C332.859 148.227 332.615 147.006 332.615 146.518C331.883 141.635 331.639 136.753 331.639 131.993C331.639 121.129 334.08 106.36 344.821 99.4027C347.873 97.4497 351.412 96.2291 355.196 96.2291C365.693 96.2291 371.918 106.116 371.918 114.66C371.918 127.354 366.426 139.56 358.858 149.691C357.149 152.377 354.83 154.574 352.877 157.137C352.999 157.137 352.999 157.259 352.999 157.381C353.243 157.747 353.487 158.113 353.487 158.235C355.196 161.287 356.905 163.972 360.079 165.559C360.323 165.559 360.445 165.681 360.689 165.803C361.665 166.169 361.665 167.024 361.665 167.268L356.539 182.037L355.44 181.671C349.215 179.596 343.967 174.836 340.427 169.465C340.305 169.343 340.061 168.733 339.695 168.122C339.573 168 339.451 167.756 339.328 167.634C339.328 168.488 333.47 171.296 332.493 171.418ZM363.008 90.4923C355.562 90.4923 350.436 83.9011 350.436 77.554C350.436 70.8407 355.929 64.7377 363.374 64.7377C370.942 64.7377 376.435 70.7186 376.435 77.554C376.435 84.6334 370.82 90.4923 363.008 90.4923Z" fill="#FF5500"/>
<mask id="path-7-outside-3_61_2423" maskUnits="userSpaceOnUse" x="191.369" y="84" width="80" height="93" fill="black">
<rect fill="white" x="191.369" y="84" width="80" height="93"/>
<path d="M242.657 143.344C239.85 136.631 237.287 130.65 229.597 130.65C220.442 130.65 213.485 135.654 213.485 144.442C213.485 150.301 216.658 154.329 223.006 154.329C230.573 154.329 238.019 149.081 242.657 143.344ZM266.337 167.634L249.737 170.807L247.906 162.019C240.826 167.878 231.184 171.418 222.029 171.418H221.053C219.1 171.418 215.682 170.563 213.973 169.953C202.377 166.169 196.397 155.55 196.397 144.687C196.397 126.744 210.8 113.806 229.597 113.806C237.897 113.806 244 116.247 249.37 121.617C249.126 113.195 245.831 106.238 236.188 106.238C230.085 106.238 224.836 108.679 220.198 112.463C219.832 112.707 219.222 113.317 218.611 113.928C218.245 114.05 217.879 114.416 217.513 114.66C217.269 114.904 216.903 115.148 216.658 115.27L215.804 115.758L203.842 104.773L204.452 103.919C211.532 95.2524 224.592 89.2715 236.066 89.2715C257.182 89.2715 266.337 105.261 266.337 122.838C266.337 131.016 264.75 137.973 261.332 145.419C262.675 150.423 264.018 155.428 265.116 160.554C265.604 162.507 265.971 164.582 266.215 166.535L266.337 167.634Z"/>
</mask>
<path d="M242.657 143.344L246.217 146.222L247.934 144.098L246.88 141.578L242.657 143.344ZM266.337 167.634L267.196 172.13L271.353 171.335L270.886 167.128L266.337 167.634ZM249.737 170.807L245.256 171.741L246.174 176.149L250.596 175.303L249.737 170.807ZM247.906 162.019L252.387 161.086L250.838 153.651L244.987 158.493L247.906 162.019ZM213.973 169.953L215.513 165.642L215.453 165.621L215.393 165.602L213.973 169.953ZM249.37 121.617L246.134 124.854L254.28 133L253.946 121.485L249.37 121.617ZM220.198 112.463L222.737 116.271L222.921 116.149L223.092 116.01L220.198 112.463ZM218.611 113.928L220.059 118.27L221.084 117.928L221.848 117.164L218.611 113.928ZM217.513 114.66L214.974 110.851L214.597 111.103L214.276 111.423L217.513 114.66ZM216.658 115.27L214.611 111.176L214.498 111.233L214.388 111.296L216.658 115.27ZM215.804 115.758L212.708 119.13L215.171 121.392L218.075 119.733L215.804 115.758ZM203.842 104.773L200.118 102.113L197.765 105.406L200.746 108.144L203.842 104.773ZM204.452 103.919L200.908 101.023L200.814 101.138L200.728 101.258L204.452 103.919ZM261.332 145.419L257.172 143.509L256.484 145.01L256.911 146.605L261.332 145.419ZM265.116 160.554L260.641 161.513L260.657 161.589L260.676 161.665L265.116 160.554ZM266.215 166.535L270.764 166.03L270.76 165.999L270.757 165.968L266.215 166.535ZM242.657 143.344L246.88 141.578C245.544 138.383 243.951 134.51 241.469 131.542C238.718 128.255 234.906 126.073 229.597 126.073V130.65V135.227C231.977 135.227 233.291 136.035 234.447 137.416C235.87 139.117 236.963 141.591 238.434 145.11L242.657 143.344ZM229.597 130.65V126.073C224.231 126.073 219.101 127.537 215.217 130.702C211.229 133.951 208.908 138.721 208.908 144.442H213.485H218.062C218.062 141.376 219.219 139.249 220.999 137.799C222.882 136.265 225.808 135.227 229.597 135.227V130.65ZM213.485 144.442H208.908C208.908 148.159 209.918 151.855 212.484 154.668C215.11 157.546 218.825 158.907 223.006 158.907V154.329V149.752C220.839 149.752 219.794 149.098 219.247 148.498C218.639 147.832 218.062 146.585 218.062 144.442H213.485ZM223.006 154.329V158.907C232.529 158.907 241.149 152.489 246.217 146.222L242.657 143.344L239.098 140.466C234.889 145.672 228.617 149.752 223.006 149.752V154.329ZM266.337 167.634L265.477 163.138L248.877 166.312L249.737 170.807L250.596 175.303L267.196 172.13L266.337 167.634ZM249.737 170.807L254.218 169.874L252.387 161.086L247.906 162.019L243.425 162.953L245.256 171.741L249.737 170.807ZM247.906 162.019L244.987 158.493C238.71 163.688 230.095 166.84 222.029 166.84V171.418V175.995C232.273 175.995 242.942 172.068 250.824 165.545L247.906 162.019ZM222.029 171.418V166.84H221.053V171.418V175.995H222.029V171.418ZM221.053 171.418V166.84C220.586 166.84 219.636 166.716 218.409 166.445C217.242 166.187 216.15 165.87 215.513 165.642L213.973 169.953L212.434 174.264C213.505 174.646 214.976 175.062 216.434 175.384C217.831 175.692 219.566 175.995 221.053 175.995V171.418ZM213.973 169.953L215.393 165.602C206.005 162.538 200.974 153.933 200.974 144.687H196.397H191.819C191.819 157.167 198.75 169.8 212.553 174.304L213.973 169.953ZM196.397 144.687H200.974C200.974 129.621 212.963 118.383 229.597 118.383V113.806V109.228C208.636 109.228 191.819 123.866 191.819 144.687H196.397ZM229.597 113.806V118.383C236.787 118.383 241.692 120.413 246.134 124.854L249.37 121.617L252.607 118.381C246.307 112.081 239.007 109.228 229.597 109.228V113.806ZM249.37 121.617L253.946 121.485C253.811 116.835 252.835 111.913 249.987 108.052C246.952 103.938 242.263 101.661 236.188 101.661V106.238V110.815C239.756 110.815 241.536 112.016 242.62 113.487C243.892 115.21 244.686 117.978 244.795 121.75L249.37 121.617ZM236.188 106.238V101.661C228.756 101.661 222.518 104.663 217.305 108.916L220.198 112.463L223.092 116.01C227.155 112.695 231.414 110.815 236.188 110.815V106.238ZM220.198 112.463L217.659 108.654C217.121 109.013 216.628 109.471 216.354 109.73C216.022 110.043 215.668 110.398 215.375 110.691L218.611 113.928L221.848 117.164C222.165 116.847 222.421 116.591 222.639 116.386C222.745 116.286 222.815 116.223 222.856 116.188C222.91 116.142 222.861 116.189 222.737 116.271L220.198 112.463ZM218.611 113.928L217.164 109.585C216.653 109.756 216.246 109.974 215.97 110.141C215.691 110.31 215.462 110.477 215.316 110.586C215.196 110.676 215.017 110.816 214.993 110.834C214.922 110.889 214.931 110.88 214.974 110.851L217.513 114.66L220.052 118.468C220.169 118.39 220.273 118.316 220.36 118.253C220.445 118.19 220.522 118.131 220.582 118.085C220.612 118.062 220.641 118.039 220.665 118.02C220.692 117.999 220.71 117.986 220.731 117.969C220.771 117.938 220.793 117.921 220.809 117.91C220.823 117.899 220.82 117.901 220.806 117.911C220.791 117.921 220.756 117.945 220.704 117.977C220.652 118.008 220.572 118.054 220.469 118.103C220.366 118.153 220.228 118.213 220.059 118.27L218.611 113.928ZM217.513 114.66L214.276 111.423C214.346 111.354 214.396 111.312 214.417 111.294C214.441 111.275 214.455 111.265 214.461 111.261C214.467 111.257 214.475 111.251 214.491 111.242C214.503 111.234 214.543 111.21 214.611 111.176L216.658 115.27L218.706 119.364C219.31 119.062 220.1 118.546 220.749 117.897L217.513 114.66ZM216.658 115.27L214.388 111.296L213.533 111.784L215.804 115.758L218.075 119.733L218.929 119.244L216.658 115.27ZM215.804 115.758L218.9 112.387L206.938 101.402L203.842 104.773L200.746 108.144L212.708 119.13L215.804 115.758ZM203.842 104.773L207.567 107.434L208.177 106.579L204.452 103.919L200.728 101.258L200.118 102.113L203.842 104.773ZM204.452 103.919L207.997 106.814C214.164 99.2658 225.896 93.8488 236.066 93.8488V89.2715V84.6943C223.289 84.6943 208.9 91.239 200.908 101.023L204.452 103.919ZM236.066 89.2715V93.8488C245.336 93.8488 251.542 97.2908 255.538 102.313C259.651 107.484 261.76 114.773 261.76 122.838H266.337H270.914C270.914 113.326 268.445 103.832 262.702 96.6138C256.841 89.2471 247.913 84.6943 236.066 84.6943V89.2715ZM266.337 122.838H261.76C261.76 130.33 260.327 136.638 257.172 143.509L261.332 145.419L265.492 147.328C269.173 139.309 270.914 131.702 270.914 122.838H266.337ZM261.332 145.419L256.911 146.605C258.259 151.627 259.57 156.52 260.641 161.513L265.116 160.554L269.592 159.595C268.465 154.336 267.091 149.219 265.753 144.233L261.332 145.419ZM265.116 160.554L260.676 161.665C261.112 163.411 261.448 165.302 261.673 167.103L266.215 166.535L270.757 165.968C270.493 163.862 270.096 161.603 269.557 159.444L265.116 160.554ZM266.215 166.535L261.665 167.041L261.788 168.139L266.337 167.634L270.886 167.128L270.764 166.03L266.215 166.535Z" fill="#FF5500" mask="url(#path-7-outside-3_61_2423)"/>
<path d="M276.515 174.974V96.639H300.222V102.05C305.247 97.5409 312.848 95.3506 319.29 95.3506C321.352 95.3506 323.284 95.6083 325.346 95.866L327.021 95.9948V122.021L323.542 119.315C321.61 117.769 318.904 116.996 316.327 116.996C304.989 116.996 300.222 125.886 300.222 135.807V174.974H276.515Z" fill="#0000D3"/>
<path d="M394.499 125.382H423.306C420.376 120.256 416.836 117.814 410.001 117.814C402.311 117.814 397.673 120.011 394.499 125.382ZM428.92 151.747L430.751 150.648L440.394 166.638L438.929 167.493C430.629 172.619 420.986 175.304 410.977 175.304C385.223 175.304 370.21 159.071 370.21 136.856C370.21 116.228 384.979 97.9186 410.001 97.9186C437.464 97.9186 447.107 118.058 447.107 138.565C447.107 139.785 447.107 141.006 446.985 142.226L446.863 143.813H392.791C392.791 144.179 392.913 144.423 393.035 144.667C396.086 152.235 401.823 156.141 410.977 156.141C417.447 156.141 423.55 154.798 428.92 151.747Z" fill="#0000D3"/>
<path d="M110.732 271.007V248.031H172.911V250.185C171.475 272.73 162.859 296.711 136.867 306.476C130.262 309.061 122.795 310.353 115.471 310.353C77.8479 310.353 57.1696 284.792 57.1696 253.344C57.1696 222.039 77.8479 196.335 115.471 196.335C131.267 196.335 146.058 200.93 156.971 211.413L157.689 212.131V213.71L142.468 232.235L140.457 230.368C133.565 224.05 123.943 220.029 114.322 220.029C94.5055 220.029 84.0227 236.399 84.0227 253.344C84.0227 270.289 94.5055 286.659 114.322 286.659C126.385 286.659 136.006 280.484 141.606 271.007H110.732Z" fill="#FF5500"/>
<mask id="path-12-outside-4_61_2423" maskUnits="userSpaceOnUse" x="258.45" y="222.267" width="85" height="86" fill="black">
<rect fill="white" x="258.45" y="222.267" width="85" height="86"/>
<path d="M263.774 303.145V228.932H286.233V234.059C290.993 229.787 298.194 227.712 304.297 227.712C325.78 227.712 337.986 244.312 337.986 265.184V303.145H315.039V266.039C315.039 257.616 310.767 248.218 301.49 248.218C290.993 248.218 286.233 256.762 286.233 266.039V303.145H263.774Z"/>
</mask>
<path d="M263.774 303.145H259.196V307.722H263.774V303.145ZM263.774 228.932V224.355H259.196V228.932H263.774ZM286.233 228.932H290.81V224.355H286.233V228.932ZM286.233 234.059H281.655V244.317L289.29 237.465L286.233 234.059ZM337.986 303.145V307.722H342.563V303.145H337.986ZM315.039 303.145H310.461V307.722H315.039V303.145ZM286.233 303.145V307.722H290.81V303.145H286.233ZM263.774 303.145H268.351V228.932H263.774H259.196V303.145H263.774ZM263.774 228.932V233.51H286.233V228.932V224.355H263.774V228.932ZM286.233 228.932H281.655V234.059H286.233H290.81V228.932H286.233ZM286.233 234.059L289.29 237.465C293.009 234.128 299.019 232.289 304.297 232.289V227.712V223.135C297.369 223.135 288.977 225.446 283.175 230.652L286.233 234.059ZM304.297 227.712V232.289C313.756 232.289 320.88 235.894 325.708 241.583C330.608 247.356 333.409 255.605 333.409 265.184H337.986H342.563C342.563 253.891 339.261 243.404 332.687 235.659C326.042 227.829 316.321 223.135 304.297 223.135V227.712ZM337.986 265.184H333.409V303.145H337.986H342.563V265.184H337.986ZM337.986 303.145V298.567H315.039V303.145V307.722H337.986V303.145ZM315.039 303.145H319.616V266.039H315.039H310.461V303.145H315.039ZM315.039 266.039H319.616C319.616 261.149 318.393 255.77 315.573 251.463C312.659 247.012 307.942 243.641 301.49 243.641V248.218V252.795C304.315 252.795 306.372 254.123 307.914 256.477C309.549 258.975 310.461 262.506 310.461 266.039H315.039ZM301.49 248.218V243.641C294.834 243.641 289.661 246.428 286.279 250.882C283.017 255.178 281.655 260.692 281.655 266.039H286.233H290.81C290.81 262.108 291.828 258.712 293.57 256.417C295.193 254.28 297.649 252.795 301.49 252.795V248.218ZM286.233 266.039H281.655V303.145H286.233H290.81V266.039H286.233ZM286.233 303.145V298.567H263.774V303.145V307.722H286.233V303.145Z" fill="#FF5500" mask="url(#path-12-outside-4_61_2423)"/>
<path d="M392.023 288.206C403.663 288.206 411.248 278.659 411.248 268.066C411.248 257.604 403.793 247.926 392.023 247.926C380.253 247.926 373.845 257.604 373.845 268.066C373.845 278.528 380.384 288.206 392.023 288.206ZM435.049 307.954H411.117V302.33C405.494 307.038 398.039 309.392 390.062 309.392C363.645 309.392 349.782 289.383 349.782 268.066C349.782 247.011 363.645 226.74 390.062 226.74C398.17 226.74 405.494 229.225 411.117 234.064V200.062H435.049V307.954Z" fill="#0000D3"/>
</svg>
