<svg width="106" height="70" viewBox="0 0 106 70" fill="none" xmlns="http://www.w3.org/2000/svg">
<path d="M3.91999 0.720008C4.29333 0.720008 4.67999 0.826675 5.07999 1.04001C5.50666 1.22667 5.82666 1.48001 6.03999 1.80001L15.76 16.76L13.76 16.68L23.72 1.80001C24.2267 1.08001 24.88 0.720008 25.68 0.720008C26.32 0.720008 26.8933 0.946675 27.4 1.40001C27.9067 1.85334 28.16 2.44001 28.16 3.16001V26.32C28.16 27.0133 27.9333 27.6 27.48 28.08C27.0267 28.5333 26.4267 28.76 25.68 28.76C24.9333 28.76 24.32 28.5333 23.84 28.08C23.3867 27.6 23.16 27.0133 23.16 26.32V7.48001L24.72 7.84001L16.56 20.28C16.32 20.5733 16.0133 20.8267 15.64 21.04C15.2933 21.2533 14.9333 21.3467 14.56 21.32C14.2133 21.3467 13.8533 21.2533 13.48 21.04C13.1333 20.8267 12.84 20.5733 12.6 20.28L4.95999 8.20001L5.99999 6.08001V26.32C5.99999 27.0133 5.78666 27.6 5.35999 28.08C4.93333 28.5333 4.37333 28.76 3.67999 28.76C3.01333 28.76 2.46666 28.5333 2.03999 28.08C1.61333 27.6 1.39999 27.0133 1.39999 26.32V3.16001C1.39999 2.49334 1.63999 1.92001 2.11999 1.44001C2.62666 0.960008 3.22666 0.720008 3.91999 0.720008ZM51.2934 6.96001C51.9868 6.96001 52.5601 7.18668 53.0134 7.64001C53.4668 8.09334 53.6934 8.68001 53.6934 9.40001V26.32C53.6934 27.0133 53.4668 27.6 53.0134 28.08C52.5601 28.5333 51.9868 28.76 51.2934 28.76C50.6001 28.76 50.0268 28.5333 49.5734 28.08C49.1201 27.6 48.8934 27.0133 48.8934 26.32V24.36L49.7734 24.72C49.7734 25.0667 49.5868 25.4933 49.2134 26C48.8401 26.48 48.3334 26.96 47.6934 27.44C47.0534 27.92 46.2934 28.3333 45.4134 28.68C44.5601 29 43.6268 29.16 42.6134 29.16C40.7734 29.16 39.1068 28.6933 37.6134 27.76C36.1201 26.8 34.9334 25.4933 34.0534 23.84C33.2001 22.16 32.7734 20.24 32.7734 18.08C32.7734 15.8933 33.2001 13.9733 34.0534 12.32C34.9334 10.64 36.1068 9.33334 37.5734 8.40001C39.0401 7.44001 40.6668 6.96001 42.4534 6.96001C43.6001 6.96001 44.6534 7.13334 45.6134 7.48001C46.5734 7.82667 47.4001 8.26667 48.0934 8.80001C48.8134 9.33334 49.3601 9.88001 49.7334 10.44C50.1334 10.9733 50.3334 11.4267 50.3334 11.8L48.8934 12.32V9.40001C48.8934 8.70667 49.1201 8.13334 49.5734 7.68001C50.0268 7.20001 50.6001 6.96001 51.2934 6.96001ZM43.2134 24.76C44.3868 24.76 45.4134 24.4667 46.2934 23.88C47.1734 23.2933 47.8534 22.4933 48.3334 21.48C48.8401 20.4667 49.0934 19.3333 49.0934 18.08C49.0934 16.8 48.8401 15.6533 48.3334 14.64C47.8534 13.6267 47.1734 12.8267 46.2934 12.24C45.4134 11.6533 44.3868 11.36 43.2134 11.36C42.0668 11.36 41.0534 11.6533 40.1734 12.24C39.2934 12.8267 38.6001 13.6267 38.0934 14.64C37.6134 15.6533 37.3734 16.8 37.3734 18.08C37.3734 19.3333 37.6134 20.4667 38.0934 21.48C38.6001 22.4933 39.2934 23.2933 40.1734 23.88C41.0534 24.4667 42.0668 24.76 43.2134 24.76ZM61.2906 28.76C60.5973 28.76 60.024 28.5333 59.5706 28.08C59.1173 27.6 58.8906 27.0133 58.8906 26.32V9.80001C58.8906 9.10668 59.1173 8.53334 59.5706 8.08001C60.024 7.60001 60.5973 7.36001 61.2906 7.36001C61.984 7.36001 62.5573 7.60001 63.0106 8.08001C63.464 8.53334 63.6906 9.10668 63.6906 9.80001V13.56L63.4106 10.88C63.704 10.24 64.0773 9.68001 64.5306 9.20001C65.0106 8.69334 65.544 8.28001 66.1306 7.96001C66.7173 7.61334 67.344 7.36001 68.0106 7.20001C68.6773 7.04001 69.344 6.96001 70.0106 6.96001C70.8106 6.96001 71.4773 7.18668 72.0106 7.64001C72.5706 8.09334 72.8506 8.62667 72.8506 9.24001C72.8506 10.12 72.624 10.76 72.1706 11.16C71.7173 11.5333 71.224 11.72 70.6906 11.72C70.184 11.72 69.7173 11.6267 69.2906 11.44C68.8906 11.2533 68.424 11.16 67.8906 11.16C67.4106 11.16 66.9173 11.28 66.4106 11.52C65.9306 11.7333 65.4773 12.08 65.0506 12.56C64.6506 13.04 64.3173 13.64 64.0506 14.36C63.8106 15.0533 63.6906 15.88 63.6906 16.84V26.32C63.6906 27.0133 63.464 27.6 63.0106 28.08C62.5573 28.5333 61.984 28.76 61.2906 28.76ZM80.7544 26.32C80.7544 27.0133 80.5277 27.6 80.0744 28.08C79.621 28.5333 79.0477 28.76 78.3544 28.76C77.661 28.76 77.0877 28.5333 76.6344 28.08C76.181 27.6 75.9544 27.0133 75.9544 26.32V9.80001C75.9544 9.10668 76.181 8.53334 76.6344 8.08001C77.0877 7.60001 77.661 7.36001 78.3544 7.36001C79.0477 7.36001 79.621 7.60001 80.0744 8.08001C80.5277 8.53334 80.7544 9.10668 80.7544 9.80001V26.32ZM78.3144 4.76001C77.4077 4.76001 76.7677 4.61334 76.3944 4.32001C76.021 4.02668 75.8344 3.50667 75.8344 2.76001V2.00001C75.8344 1.22668 76.0344 0.706676 76.4344 0.44001C76.861 0.146675 77.501 8.10623e-06 78.3544 8.10623e-06C79.2877 8.10623e-06 79.941 0.146675 80.3144 0.44001C80.6877 0.733342 80.8744 1.25334 80.8744 2.00001V2.76001C80.8744 3.53334 80.6744 4.06667 80.2744 4.36001C79.8744 4.62668 79.221 4.76001 78.3144 4.76001ZM95.7675 29.16C93.5008 29.16 91.5275 28.6933 89.8475 27.76C88.1942 26.8 86.9142 25.5067 86.0075 23.88C85.1275 22.2533 84.6875 20.4133 84.6875 18.36C84.6875 15.96 85.1675 13.92 86.1275 12.24C87.1142 10.5333 88.3942 9.22668 89.9675 8.32001C91.5408 7.41334 93.2075 6.96001 94.9675 6.96001C96.3275 6.96001 97.6075 7.24001 98.8075 7.80001C100.034 8.36001 101.114 9.13334 102.047 10.12C102.981 11.08 103.714 12.2 104.247 13.48C104.807 14.76 105.087 16.12 105.087 17.56C105.061 18.2 104.807 18.72 104.327 19.12C103.847 19.52 103.287 19.72 102.647 19.72H87.3675L86.1675 15.72H100.847L99.9675 16.52V15.44C99.9142 14.6667 99.6342 13.9733 99.1275 13.36C98.6475 12.7467 98.0342 12.2667 97.2875 11.92C96.5675 11.5467 95.7942 11.36 94.9675 11.36C94.1675 11.36 93.4208 11.4667 92.7275 11.68C92.0342 11.8933 91.4342 12.2533 90.9275 12.76C90.4208 13.2667 90.0208 13.9467 89.7275 14.8C89.4342 15.6533 89.2875 16.7333 89.2875 18.04C89.2875 19.48 89.5808 20.7067 90.1675 21.72C90.7808 22.7067 91.5542 23.4667 92.4875 24C93.4475 24.5067 94.4608 24.76 95.5275 24.76C96.5142 24.76 97.3008 24.68 97.8875 24.52C98.4742 24.36 98.9408 24.1733 99.2875 23.96C99.6608 23.72 99.9942 23.52 100.287 23.36C100.767 23.12 101.221 23 101.647 23C102.234 23 102.714 23.2 103.087 23.6C103.487 24 103.687 24.4667 103.687 25C103.687 25.72 103.314 26.3733 102.567 26.96C101.874 27.5467 100.901 28.0667 99.6475 28.52C98.3942 28.9467 97.1008 29.16 95.7675 29.16ZM14.6 69.16C12.5733 69.16 10.68 68.7867 8.91999 68.04C7.15999 67.2933 5.61333 66.2667 4.27999 64.96C2.94666 63.6267 1.89333 62.0933 1.11999 60.36C0.373327 58.6267 -5.99027e-06 56.76 -5.99027e-06 54.76C-5.99027e-06 52.76 0.373327 50.8933 1.11999 49.16C1.89333 47.4267 2.94666 45.9067 4.27999 44.6C5.61333 43.2667 7.15999 42.2267 8.91999 41.48C10.68 40.7333 12.5733 40.36 14.6 40.36C15.8533 40.36 17.0667 40.4933 18.24 40.76C19.4133 41.0267 20.4933 41.4267 21.48 41.96C21.88 42.1733 22.1733 42.4667 22.36 42.84C22.5733 43.1867 22.68 43.5467 22.68 43.92C22.68 44.56 22.4667 45.1333 22.04 45.64C21.6133 46.1467 21.0667 46.4 20.4 46.4C20.1867 46.4 19.96 46.3733 19.72 46.32C19.5067 46.2667 19.2933 46.1867 19.08 46.08C18.4133 45.7867 17.7067 45.56 16.96 45.4C16.2133 45.24 15.4267 45.16 14.6 45.16C12.8667 45.16 11.28 45.6 9.83999 46.48C8.42666 47.3333 7.29333 48.4933 6.43999 49.96C5.61333 51.4 5.19999 53 5.19999 54.76C5.19999 56.4933 5.61333 58.0933 6.43999 59.56C7.29333 61.0267 8.42666 62.2 9.83999 63.08C11.28 63.9333 12.8667 64.36 14.6 64.36C15.4 64.36 16.28 64.28 17.24 64.12C18.2 63.96 18.9867 63.7467 19.6 63.48L19.24 64.68V57.84L19.92 58.44H15.48C14.7867 58.44 14.2 58.2133 13.72 57.76C13.2667 57.3067 13.04 56.7333 13.04 56.04C13.04 55.3467 13.2667 54.7733 13.72 54.32C14.2 53.8667 14.7867 53.64 15.48 53.64H22.04C22.7333 53.64 23.3067 53.88 23.76 54.36C24.2133 54.8133 24.44 55.3867 24.44 56.08V64.56C24.44 65.0933 24.3067 65.5333 24.04 65.88C23.8 66.2267 23.52 66.5067 23.2 66.72C21.9733 67.4667 20.6267 68.0667 19.16 68.52C17.72 68.9467 16.2 69.16 14.6 69.16ZM49.6116 58.08C49.6116 60.2667 49.1182 62.2 48.1316 63.88C47.1716 65.5333 45.8649 66.8267 44.2116 67.76C42.5849 68.6933 40.7582 69.16 38.7316 69.16C36.7049 69.16 34.8649 68.6933 33.2116 67.76C31.5849 66.8267 30.2782 65.5333 29.2916 63.88C28.3316 62.2 27.8516 60.2667 27.8516 58.08C27.8516 55.8933 28.3316 53.9733 29.2916 52.32C30.2782 50.64 31.5849 49.3333 33.2116 48.4C34.8649 47.44 36.7049 46.96 38.7316 46.96C40.7582 46.96 42.5849 47.44 44.2116 48.4C45.8649 49.3333 47.1716 50.64 48.1316 52.32C49.1182 53.9733 49.6116 55.8933 49.6116 58.08ZM44.8116 58.08C44.8116 56.72 44.5316 55.5467 43.9716 54.56C43.4382 53.5467 42.7049 52.76 41.7716 52.2C40.8649 51.64 39.8516 51.36 38.7316 51.36C37.6116 51.36 36.5849 51.64 35.6516 52.2C34.7449 52.76 34.0116 53.5467 33.4516 54.56C32.9182 55.5467 32.6516 56.72 32.6516 58.08C32.6516 59.4133 32.9182 60.5867 33.4516 61.6C34.0116 62.5867 34.7449 63.36 35.6516 63.92C36.5849 64.48 37.6116 64.76 38.7316 64.76C39.8516 64.76 40.8649 64.48 41.7716 63.92C42.7049 63.36 43.4382 62.5867 43.9716 61.6C44.5316 60.5867 44.8116 59.4133 44.8116 58.08ZM65.2525 46.96C67.2258 46.96 68.7192 47.3733 69.7325 48.2C70.7725 49.0267 71.4792 50.1333 71.8525 51.52C72.2525 52.88 72.4525 54.4 72.4525 56.08V66.32C72.4525 67.0133 72.2258 67.6 71.7725 68.08C71.3192 68.5333 70.7458 68.76 70.0525 68.76C69.3592 68.76 68.7858 68.5333 68.3325 68.08C67.8792 67.6 67.6525 67.0133 67.6525 66.32V56.08C67.6525 55.2 67.5325 54.4133 67.2925 53.72C67.0792 53 66.6792 52.4267 66.0925 52C65.5058 51.5733 64.6658 51.36 63.5725 51.36C62.5058 51.36 61.5992 51.5733 60.8525 52C60.1325 52.4267 59.5725 53 59.1725 53.72C58.7992 54.4133 58.6125 55.2 58.6125 56.08V66.32C58.6125 67.0133 58.3858 67.6 57.9325 68.08C57.4792 68.5333 56.9058 68.76 56.2125 68.76C55.5192 68.76 54.9458 68.5333 54.4925 68.08C54.0392 67.6 53.8125 67.0133 53.8125 66.32V49.8C53.8125 49.1067 54.0392 48.5333 54.4925 48.08C54.9458 47.6 55.5192 47.36 56.2125 47.36C56.9058 47.36 57.4792 47.6 57.9325 48.08C58.3858 48.5333 58.6125 49.1067 58.6125 49.8V51.52L58.0125 51.4C58.2525 50.9467 58.5992 50.4667 59.0525 49.96C59.5058 49.4267 60.0392 48.9333 60.6525 48.48C61.2658 48.0267 61.9592 47.6667 62.7325 47.4C63.5058 47.1067 64.3458 46.96 65.2525 46.96ZM95.1606 39.16C95.854 39.16 96.4273 39.3867 96.8806 39.84C97.334 40.2933 97.5606 40.88 97.5606 41.6V66.32C97.5606 67.0133 97.334 67.6 96.8806 68.08C96.4273 68.5333 95.854 68.76 95.1606 68.76C94.4673 68.76 93.894 68.5333 93.4406 68.08C92.9873 67.6 92.7606 67.0133 92.7606 66.32V64.36L93.6406 64.72C93.6406 65.0667 93.454 65.4933 93.0806 66C92.7073 66.48 92.2006 66.96 91.5606 67.44C90.9206 67.92 90.1606 68.3333 89.2806 68.68C88.4273 69 87.494 69.16 86.4806 69.16C84.6406 69.16 82.974 68.6933 81.4806 67.76C79.9873 66.8 78.8006 65.4933 77.9206 63.84C77.0673 62.16 76.6406 60.24 76.6406 58.08C76.6406 55.8933 77.0673 53.9733 77.9206 52.32C78.8006 50.64 79.974 49.3333 81.4406 48.4C82.9073 47.44 84.534 46.96 86.3206 46.96C87.4673 46.96 88.5206 47.1333 89.4806 47.48C90.4406 47.8267 91.2673 48.2667 91.9606 48.8C92.6806 49.3333 93.2273 49.88 93.6006 50.44C94.0006 50.9733 94.2006 51.4267 94.2006 51.8L92.7606 52.32V41.6C92.7606 40.9067 92.9873 40.3333 93.4406 39.88C93.894 39.4 94.4673 39.16 95.1606 39.16ZM87.0806 64.76C88.254 64.76 89.2806 64.4667 90.1606 63.88C91.0406 63.2933 91.7206 62.4933 92.2006 61.48C92.7073 60.4667 92.9606 59.3333 92.9606 58.08C92.9606 56.8 92.7073 55.6533 92.2006 54.64C91.7206 53.6267 91.0406 52.8267 90.1606 52.24C89.2806 51.6533 88.254 51.36 87.0806 51.36C85.934 51.36 84.9206 51.6533 84.0406 52.24C83.1606 52.8267 82.4673 53.6267 81.9606 54.64C81.4806 55.6533 81.2406 56.8 81.2406 58.08C81.2406 59.3333 81.4806 60.4667 81.9606 61.48C82.4673 62.4933 83.1606 63.2933 84.0406 63.88C84.9206 64.4667 85.934 64.76 87.0806 64.76Z" fill="#0000D3"/>
</svg>
