<svg width="181" height="111" viewBox="0 0 181 111" fill="none" xmlns="http://www.w3.org/2000/svg">
<path d="M0.28 18.072H31.128V29.848C33.944 21.144 40.1307 16.792 49.688 16.792C59.3307 16.792 65.176 21.4 67.224 30.616C70.2107 21.4 76.4827 16.792 86.04 16.792C98.584 16.792 104.856 23.9173 104.856 38.168V76.696H112.024V79H76.568V76.696H81.048V35.096C81.048 28.6107 80.4933 24.8133 79.384 23.704C78.872 23.192 78.1893 22.936 77.336 22.936C74.8613 22.936 72.6853 24.6 70.808 27.928C68.9307 31.256 67.992 35.48 67.992 40.6V76.696H72.6V79H39.704V76.696H44.184V35.096C44.184 28.6107 43.6293 24.8133 42.52 23.704C42.008 23.192 41.3253 22.936 40.472 22.936C38.0827 22.936 35.9067 24.7707 33.944 28.44C32.0667 32.024 31.128 36.3333 31.128 41.368V76.696H35.736V79H0.28V76.696H7.32V20.376H0.28V18.072ZM165.233 11.416L168.817 9.24C169.329 6.59466 168.305 5.272 165.745 5.272C162.076 5.272 160.241 8.08799 160.241 13.72C160.241 15.9387 160.54 18.4987 161.137 21.4C167.622 25.752 170.865 31.3413 170.865 38.168C170.865 44.9093 168.518 50.1573 163.825 53.912C159.132 57.6667 152.774 59.544 144.753 59.544C141.425 59.544 137.969 59.2027 134.385 58.52C130.63 60.9093 128.753 62.7013 128.753 63.896C128.753 65.0907 131.484 65.688 136.945 65.688H150.001C169.372 65.688 179.057 72.6427 179.057 86.552C179.057 94.0613 176.113 99.992 170.225 104.344C164.422 108.781 155.334 111 142.961 111C121.884 111 111.345 106.435 111.345 97.304C111.345 92.3547 114.63 88.9413 121.201 87.064L128.881 90.52C128.198 92.9947 127.857 95.3413 127.857 97.56C127.857 104.899 133.318 108.568 144.241 108.568C150.897 108.568 156.017 107.331 159.601 104.856C163.185 102.381 164.977 99.3093 164.977 95.64C164.977 91.9707 163.868 89.496 161.649 88.216C159.516 87.0213 155.206 86.424 148.721 86.424H136.305C129.393 86.424 124.444 85.272 121.457 82.968C118.47 80.664 116.977 77.848 116.977 74.52C116.977 71.1067 118.044 68.2907 120.177 66.072C122.31 63.768 126.108 60.952 131.569 57.624C121.67 54.808 116.721 48.3227 116.721 38.168C116.721 31.768 119.025 26.6053 123.633 22.68C128.241 18.7547 135.153 16.792 144.369 16.792C149.916 16.792 154.652 17.8587 158.577 19.992C158.065 17.688 157.809 15.5973 157.809 13.72C157.809 8.94133 159.089 5.48533 161.649 3.352C164.209 1.21866 167.068 0.151993 170.225 0.151993C173.382 0.151993 175.9 1.00533 177.777 2.712C179.74 4.33333 180.721 6.59466 180.721 9.49599C180.721 12.3973 179.953 14.5733 178.417 16.024C176.881 17.3893 175.004 18.072 172.785 18.072C170.652 18.072 168.86 17.5173 167.409 16.408C166.044 15.2133 165.318 13.5493 165.233 11.416ZM138.097 35.352V42.264C138.097 47.9813 138.566 51.864 139.505 53.912C140.529 55.96 142.022 56.984 143.985 56.984C146.033 56.984 147.484 56.0027 148.337 54.04C149.276 51.992 149.745 47.8533 149.745 41.624V35.352C149.745 28.696 149.318 24.344 148.465 22.296C147.612 20.1627 146.161 19.096 144.113 19.096C142.15 19.096 140.657 20.2053 139.633 22.424C138.609 24.5573 138.097 28.8667 138.097 35.352Z" fill="#1E0F75"/>
</svg>
