<svg width="392" height="411" viewBox="0 0 392 411" fill="none" xmlns="http://www.w3.org/2000/svg">
<rect width="392" height="411" rx="10" fill="#FFFDF9"/>
<path d="M137 215.269C147.217 211.346 151.475 188.462 152.326 178C174.396 197.354 205.116 190.423 217.717 184.538C212.404 198.138 224.359 210.692 231 215.269C224.87 224.423 199.326 229 189.356 229C169.85 229 145.727 218.917 137.2 215.353L137 215.269Z" fill="#FFFDF9" stroke="#0000D3" stroke-width="2" stroke-linejoin="bevel"/>
<circle cx="6.5" cy="6.5" r="5.75" transform="matrix(1 0 0 -1 254.5 135)" fill="#FFFDF9" stroke="#0000D3" stroke-width="1.5"/>
<path d="M196.199 19C161.532 19.5 91.5986 43.8 89.1986 137C86.7986 230.2 49.1986 269 37.1986 282.5C25.6186 295.527 9.65788 335.52 49.1986 347C64.6985 351.5 74 348.5 80.5 342" stroke="#0000D3" stroke-width="2" stroke-linejoin="bevel"/>
<path d="M37 296C37 296 118 248 139.5 216C175 231.5 202.5 234 229.5 215.5C276 267.45 288.588 261.71 332 296C323.5 310.114 248.9 389.205 180.5 390.965C112.1 392.724 52.8333 311.58 37 296Z" fill="#FF5500" stroke="#FF5500" stroke-width="2" stroke-linejoin="round"/>
<path d="M215 187C198 206.5 163.5 205.667 148.5 202.5C148.5 202.5 150.321 197.5 151.5 192C152.679 186.5 152 181 152 181C175.5 196.5 204 191 215 187Z" fill="#EFEFEF"/>
<circle cx="140.5" cy="228.5" r="4.5" fill="#FFFDF9"/>
<circle cx="161.5" cy="256.5" r="4.5" fill="#FFFDF9"/>
<circle cx="208.5" cy="248.5" r="4.5" fill="#FFFDF9"/>
<circle cx="183.5" cy="264.5" r="4.5" fill="#FFFDF9"/>
<circle cx="137.5" cy="256.5" r="4.5" fill="#FFFDF9"/>
<circle cx="160.5" cy="237.5" r="4.5" fill="#FFFDF9"/>
<circle cx="186.5" cy="240.5" r="4.5" fill="#FFFDF9"/>
<circle cx="178.5" cy="290.5" r="4.5" fill="#FFFDF9"/>
<circle cx="197.5" cy="297.5" r="4.5" fill="#FFFDF9"/>
<circle cx="206.5" cy="330.5" r="4.5" fill="#FFFDF9"/>
<circle cx="244.5" cy="298.5" r="4.5" fill="#FFFDF9"/>
<circle cx="225.5" cy="285.5" r="4.5" fill="#FFFDF9"/>
<circle cx="248.5" cy="258.5" r="4.5" fill="#FFFDF9"/>
<circle cx="208.5" cy="268.5" r="4.5" fill="#FFFDF9"/>
<circle cx="230.5" cy="244.5" r="4.5" fill="#FFFDF9"/>
<circle cx="235.5" cy="231.5" r="4.5" fill="#FFFDF9"/>
<circle cx="240.5" cy="277.5" r="4.5" fill="#FFFDF9"/>
<circle cx="123.5" cy="277.5" r="4.5" fill="#FFFDF9"/>
<circle cx="98.5" cy="280.5" r="4.5" fill="#FFFDF9"/>
<circle cx="97.5" cy="259.5" r="4.5" fill="#FFFDF9"/>
<circle cx="94.5" cy="297.5" r="4.5" fill="#FFFDF9"/>
<circle cx="72.5" cy="282.5" r="4.5" fill="#FFFDF9"/>
<circle cx="143.5" cy="311.5" r="4.5" fill="#FFFDF9"/>
<circle cx="151.5" cy="285.5" r="4.5" fill="#FFFDF9"/>
<circle cx="265.5" cy="290.5" r="4.5" fill="#FFFDF9"/>
<circle cx="280.5" cy="320.5" r="4.5" fill="#FFFDF9"/>
<circle cx="217.5" cy="302.5" r="4.5" fill="#FFFDF9"/>
<circle cx="249.5" cy="316.5" r="4.5" fill="#FFFDF9"/>
<circle cx="184.5" cy="325.5" r="4.5" fill="#FFFDF9"/>
<circle cx="213.5" cy="224.5" r="4.5" fill="#FFFDF9"/>
<circle cx="156.5" cy="334.5" r="4.5" fill="#FFFDF9"/>
<circle cx="216.5" cy="350.5" r="4.5" fill="#FFFDF9"/>
<circle cx="231.5" cy="330.5" r="4.5" fill="#FFFDF9"/>
<circle cx="272.5" cy="338.5" r="4.5" fill="#FFFDF9"/>
<circle cx="261.5" cy="359.5" r="4.5" fill="#FFFDF9"/>
<circle cx="207.5" cy="380.5" r="4.5" fill="#FFFDF9"/>
<circle cx="197.5" cy="363.5" r="4.5" fill="#FFFDF9"/>
<circle cx="160.5" cy="386.5" r="4.5" fill="#FFFDF9"/>
<circle cx="138.5" cy="360.5" r="4.5" fill="#FFFDF9"/>
<circle cx="185.5" cy="345.5" r="4.5" fill="#FFFDF9"/>
<circle cx="185.5" cy="383.5" r="4.5" fill="#FFFDF9"/>
<circle cx="234.5" cy="364.5" r="4.5" fill="#FFFDF9"/>
<circle cx="248.5" cy="341.5" r="4.5" fill="#FFFDF9"/>
<circle cx="167.5" cy="365.5" r="4.5" fill="#FFFDF9"/>
<circle cx="166.5" cy="311.5" r="4.5" fill="#FFFDF9"/>
<circle cx="135.5" cy="379.5" r="4.5" fill="#FFFDF9"/>
<circle cx="72.5" cy="301.5" r="4.5" fill="#FFFDF9"/>
<circle cx="81.5" cy="342.5" r="4.5" fill="#FFFDF9"/>
<circle cx="109.5" cy="364.5" r="4.5" fill="#FFFDF9"/>
<circle cx="124.5" cy="333.5" r="4.5" fill="#FFFDF9"/>
<circle cx="100.5" cy="339.5" r="4.5" fill="#FFFDF9"/>
<circle cx="119.5" cy="312.5" r="4.5" fill="#FFFDF9"/>
<circle cx="81.5" cy="315.5" r="4.5" fill="#FFFDF9"/>
<circle cx="53.5" cy="312.5" r="4.5" fill="#FFFDF9"/>
<circle cx="44.5" cy="290.5" r="4.5" fill="#FFFDF9"/>
<circle cx="116.5" cy="245.5" r="4.5" fill="#FFFDF9"/>
<circle cx="6.5" cy="6.5" r="5.75" transform="matrix(1 0 0 -1 112.5 135)" fill="#EFEFEF" stroke="#0000D3" stroke-width="1.5"/>
<circle cx="189.5" cy="122" r="69" fill="#FFFDF9" stroke="#0000D3" stroke-width="2"/>
<path d="M178.5 137.5L199.5 133.5L195.5 144.5C192.667 144.167 186 144.5 181 143.5C176.293 142.559 175 138.5 178.5 137.5Z" fill="#EFEFEF"/>
<path d="M120.5 120.5C150.5 108.5 170 94 194 61L131 104L120.5 120.5Z" fill="#EFEFEF"/>
<path d="M194 62C201 86.8333 223.5 132.3 257.5 115.5L194 62Z" fill="#EFEFEF"/>
<path d="M151.165 93.3598C152.457 92.7781 153.219 92.5145 154.595 92.173C156.555 91.6864 159.733 91.5784 159.733 91.5784C159.733 91.5784 164.888 90.8196 168.008 91.6612C169.694 92.1158 170.642 92.4823 172.128 93.3993C172.554 93.6623 172.888 93.864 173.188 94.12C173.489 94.3759 174.339 95.1425 174.339 95.1425" stroke="#0000D3" stroke-width="6" stroke-linecap="round"/>
<path d="M204.39 95.4347C205.534 94.4336 205.83 94.1026 206.89 93.4431C208.705 92.3139 209.943 92.0423 212.018 91.5306C215.302 90.7207 220.664 91.0212 220.664 91.0212L222.727 90.5959" stroke="#0000D3" stroke-width="6" stroke-linecap="round"/>
<path d="M157.55 115.28C157.382 115.787 157.041 116.551 157.209 117.059C157.434 117.739 158.816 117.827 160.004 117.701C160.64 117.633 160.858 116.727 161.24 115.713C161.483 115.068 161.37 114.027 160.698 113.508C160.025 112.988 158.681 112.988 157.904 113.114C157.127 113.24 156.959 113.492 156.831 113.748C156.583 114.24 156.531 115.272 156.699 116.503C157.634 117.57 158.057 118.166 158.607 118.293C158.905 118.336 159.241 118.336 159.587 118.336" stroke="#0000D3" stroke-width="9" stroke-linecap="round"/>
<path d="M217.907 112.988C217.739 112.988 217.148 112.988 216.342 113.114C215.808 113.198 215.869 114.34 215.995 115.484C216.227 117.583 217.649 118.25 218.157 118.504C218.399 118.625 218.666 118.591 218.921 118.507C219.177 118.423 219.43 118.255 219.559 118.042C220.092 117.171 220.367 116.049 220.665 114.903C220.761 114.531 220.708 114.017 220.582 113.673C220.456 113.329 220.204 113.161 219.906 113.075C219.608 112.988 219.272 112.988 219.014 113.156C218.757 113.324 218.589 113.66 217.907 114.007" stroke="#0000D3" stroke-width="9" stroke-linecap="round"/>
<path d="M223.255 109.932C223.255 109.848 223.255 109.764 223.339 109.595C223.423 109.425 223.591 109.173 224.019 108.404" stroke="#0000D3" stroke-width="3" stroke-linecap="round"/>
<path d="M217.652 108.913C217.652 108.829 217.652 108.745 217.652 108.576C217.652 108.407 217.652 108.154 217.694 107.856C217.736 107.559 217.82 107.222 217.907 106.621" stroke="#0000D3" stroke-width="3" stroke-linecap="round"/>
<path d="M213.577 110.441C213.577 110.273 213.325 110.187 212.859 110.019C212.645 109.851 212.477 109.514 212.264 109.215C212.052 108.916 211.8 108.664 211.54 108.149" stroke="#0000D3" stroke-width="3" stroke-linecap="round"/>
<path d="M153.475 111.205C153.307 111.121 153.139 111.037 152.969 110.826C152.798 110.615 152.63 110.278 152.202 109.423" stroke="#0000D3" stroke-width="3" stroke-linecap="round"/>
<path d="M159.333 109.168C159.333 109.084 159.333 109 159.333 108.579C159.333 108.157 159.333 107.401 159.587 106.367" stroke="#0000D3" stroke-width="3" stroke-linecap="round"/>
<path d="M162.898 110.951C162.898 110.783 163.15 110.612 163.658 110.401C163.914 110.273 164.166 110.105 164.422 109.977C164.678 109.848 164.93 109.764 165.699 109.168" stroke="#0000D3" stroke-width="3" stroke-linecap="round"/>
<path d="M197.56 104.839C196.962 105.738 195.962 106.937 195.159 108.938C194.491 110.606 193.954 111.943 193.556 113.598C192.479 118.074 192.273 121.726 193.851 126.521C194.534 128.598 196.256 131.577 196.256 131.577C196.256 131.577 197.359 133.385 197.509 134.133C197.895 136.056 196.95 136.89 196.261 138.541C195.786 139.679 195.436 140.282 194.809 141.344C194.49 141.884 194.261 142.096 193.954 142.703" stroke="#0000D3" stroke-width="4" stroke-linecap="round"/>
<path d="M182.732 139.398L183.333 140.299" stroke="#0000D3" stroke-width="4" stroke-linecap="round"/>
<path d="M172.307 160.734C175.306 162.789 177.225 163.704 180.71 164.738C185.805 166.251 189.078 166.556 194.296 165.544C197.866 164.85 200.052 164.365 203.004 162.241C203.47 161.906 203.724 161.707 204.161 161.335" stroke="#0000D3" stroke-width="4" stroke-linecap="round"/>
<circle cx="147" cy="140" r="10" fill="#FF5500"/>
<circle cx="230" cy="140" r="10" fill="#FF5500"/>
<path d="M89.1986 138C91.5986 44.8 161.532 20.5 196.199 20L199.199 54.5C158.5 104.5 139.912 91.2186 121.5 118C116 126 119.5 120 112.5 125.5C113 130.805 113.5 135 121.5 135C125.5 158.5 142.662 173.002 151.301 181C152.5 197 143.667 211.5 138.5 214C80 298 11 283.5 80 342.5C73.5 349 64.6985 352.5 49.1986 348C9.65788 336.52 25.6186 296.527 37.1986 283.5C49.1986 270 86.7986 231.2 89.1986 138Z" fill="#0000D3" stroke="#0000D3" stroke-width="2" stroke-linejoin="bevel"/>
<path d="M303 137C300.6 43.8 230.667 19.5 196 19L193 53.5C207.4 109.1 242.667 117 258.5 114C259.3 120.4 258.167 129.667 257.5 133.5C255 160 226.667 183.667 216 186C215.2 202 225.5 212.5 230 214.5C242 232 273.167 317.667 295 335.5C301.5 342 327.5 351.5 343 347C382.541 335.52 366.58 295.527 355 282.5C343 269 305.4 230.2 303 137Z" fill="#0000D3" stroke="#0000D3" stroke-width="2" stroke-linejoin="bevel"/>
</svg>
